<svg width="341" height="241" xmlns="http://www.w3.org/2000/svg">

 <g>
  <title>Layer 1</title>
  <rect transform="rotate(45 268.598 72.2831)" stroke="#ffffff" stroke-width="3" id="svg_10" height="28.82097" width="277.96231" y="57.87259" x="129.61721" fill="#ffffff"/>
  <rect transform="rotate(-45 70.0203 76.0585)" stroke-width="3" stroke="#ffffff" id="svg_9" height="28.82097" width="277.96231" y="61.64801" x="-68.96088" fill="#ffffff"/>
  <rect transform="rotate(45 268.099 71.5331)" stroke="#000" stroke-width="0" id="svg_4" height="28.82097" width="277.96231" y="57.12259" x="129.11721" fill="#000000"/>
  <rect transform="rotate(-45 70.0203 76.0585)" stroke="#000" stroke-width="0" id="svg_8" height="28.82097" width="277.96231" y="61.64801" x="-68.96088" fill="#000000"/>
  <path stroke="#ffffff" id="svg_18" d="m162.41246,3.94432c0,0.73577 -5.76207,1.33222 -12.86996,1.33222m12.86996,-1.33222l0,0c0,0.73577 -5.76207,1.33222 -12.86996,1.33222c-7.10787,0 -12.86995,-0.59645 -12.86995,-1.33222m0,0l0,0c0,-0.73576 5.76208,-1.33221 12.86995,-1.33221c7.10789,0 12.86996,0.59645 12.86996,1.33221l0,5.32887c0,0.73576 -5.76207,1.33221 -12.86996,1.33221c-7.10787,0 -12.86995,-0.59645 -12.86995,-1.33221l0,-5.32887z" stroke-width="6" fill="#ffffff"/>
  <path stroke="#000000" id="svg_17" d="m162.41246,3.94432c0,0.73576 -5.76208,1.33222 -12.86996,1.33222m12.86996,-1.33222l0,0c0,0.73576 -5.76208,1.33222 -12.86996,1.33222c-7.10788,0 -12.86995,-0.59645 -12.86995,-1.33222m0,0l0,0c0,-0.73576 5.76207,-1.33221 12.86995,-1.33221c7.10788,0 12.86996,0.59645 12.86996,1.33221l0,5.32886c0,0.73576 -5.76208,1.33221 -12.86996,1.33221c-7.10788,0 -12.86995,-0.59645 -12.86995,-1.33221l0,-5.32886z" stroke-width="4" fill="#000000"/>
  <path stroke="#ffffff" id="svg_19" d="m204.41246,4.25815c0,0.73577 -5.76207,1.33222 -12.86996,1.33222m12.86996,-1.33222l0,0c0,0.73577 -5.76207,1.33222 -12.86996,1.33222c-7.10787,0 -12.86995,-0.59645 -12.86995,-1.33222m0,0l0,0c0,-0.73576 5.76208,-1.33221 12.86995,-1.33221c7.10789,0 12.86996,0.59645 12.86996,1.33221l0,5.32887c0,0.73576 -5.76207,1.33221 -12.86996,1.33221c-7.10787,0 -12.86995,-0.59645 -12.86995,-1.33221l0,-5.32887z" stroke-width="6" fill="#ffffff"/>
  <path stroke="#000000" id="svg_20" d="m204.41246,4.04538c0,0.73577 -5.76207,1.33222 -12.86996,1.33222m12.86996,-1.33222l0,0c0,0.73577 -5.76207,1.33222 -12.86996,1.33222c-7.10787,0 -12.86995,-0.59645 -12.86995,-1.33222m0,0l0,0c0,-0.73576 5.76208,-1.33221 12.86995,-1.33221c7.10789,0 12.86996,0.59645 12.86996,1.33221l0,5.32887c0,0.73576 -5.76207,1.33221 -12.86996,1.33221c-7.10787,0 -12.86995,-0.59645 -12.86995,-1.33221l0,-5.32887z" stroke-width="4" fill="#000000"/>
  <rect stroke="#ffffff" id="svg_11" height="21.41279" width="16.1686" y="-8.23837" x="162.83721" stroke-width="2" fill="#000000"/>
 </g>
</svg>